<svg width="24" height="25" viewBox="0 0 24 25" fill="none" xmlns="http://www.w3.org/2000/svg">
<path fill-rule="evenodd" clip-rule="evenodd" d="M20 11V16.0858L21.4142 17.5C21.7893 17.8751 22 18.3838 22 18.9142V19C22 19.8284 21.3284 20.5 20.5 20.5H4.5C3.67157 20.5 3 19.8284 3 19V18.9142C3 18.3838 3.21071 17.8751 3.58579 17.5L5 16.0858V11C5 7.77911 7.04753 4.97485 10.0009 3.93282C10.0364 2.58168 11.1402 1.5 12.5 1.5C13.8598 1.5 14.9636 2.58168 14.9991 3.93282C17.9525 4.97485 20 7.77911 20 11ZM10.5 21.5C10.5 22.6 11.4 23.5 12.5 23.5C13.6 23.5 14.5 22.6 14.5 21.5H10.5ZM18 11V16.9142L19.5858 18.5H5.41421L7 16.9142V11C7 8.43924 8.76632 6.23692 11.2306 5.65306L12 5.47075V4C12 3.72228 12.2223 3.5 12.5 3.5C12.7777 3.5 13 3.72228 13 4V5.47075L13.7694 5.65306C16.2337 6.23692 18 8.43924 18 11Z" fill="#C2D1D9"/>
<mask id="mask0_63_1835" style="mask-type:alpha" maskUnits="userSpaceOnUse" x="3" y="1" width="19" height="23">
<path fill-rule="evenodd" clip-rule="evenodd" d="M20 11V16.0858L21.4142 17.5C21.7893 17.8751 22 18.3838 22 18.9142V19C22 19.8284 21.3284 20.5 20.5 20.5H4.5C3.67157 20.5 3 19.8284 3 19V18.9142C3 18.3838 3.21071 17.8751 3.58579 17.5L5 16.0858V11C5 7.77911 7.04753 4.97485 10.0009 3.93282C10.0364 2.58168 11.1402 1.5 12.5 1.5C13.8598 1.5 14.9636 2.58168 14.9991 3.93282C17.9525 4.97485 20 7.77911 20 11ZM10.5 21.5C10.5 22.6 11.4 23.5 12.5 23.5C13.6 23.5 14.5 22.6 14.5 21.5H10.5ZM18 11V16.9142L19.5858 18.5H5.41421L7 16.9142V11C7 8.43924 8.76632 6.23692 11.2306 5.65306L12 5.47075V4C12 3.72228 12.2223 3.5 12.5 3.5C12.7777 3.5 13 3.72228 13 4V5.47075L13.7694 5.65306C16.2337 6.23692 18 8.43924 18 11Z" fill="white"/>
</mask>
<g mask="url(#mask0_63_1835)">
<rect y="0.5" width="24" height="24" fill="#A1AEB7"/>
</g>
</svg>
