<svg width="24" height="25" viewBox="0 0 24 25" fill="none" xmlns="http://www.w3.org/2000/svg">
<path fill-rule="evenodd" clip-rule="evenodd" d="M12 12.5C14.7623 12.5 17 10.2623 17 7.5C17 4.73772 14.7623 2.5 12 2.5C9.23772 2.5 7 4.73772 7 7.5C7 10.2623 9.23772 12.5 12 12.5ZM12 4.5C13.6577 4.5 15 5.84228 15 7.5C15 9.15772 13.6577 10.5 12 10.5C10.3423 10.5 9 9.15772 9 7.5C9 5.84228 10.3423 4.5 12 4.5ZM21 21.5C21 22.0523 20.5523 22.5 20 22.5C19.4477 22.5 19 22.0523 19 21.5V19.5C19 18.0399 15.156 16.5 12 16.5C8.844 16.5 5 18.0399 5 19.5V21.5C5 22.0523 4.55228 22.5 4 22.5C3.44772 22.5 3 22.0523 3 21.5V19.5C3 16.4353 7.83098 14.5 12 14.5C16.169 14.5 21 16.4353 21 19.5V21.5Z" fill="#C2D1D9"/>
<mask id="mask0_63_1820" style="mask-type:alpha" maskUnits="userSpaceOnUse" x="3" y="2" width="18" height="21">
<path fill-rule="evenodd" clip-rule="evenodd" d="M12 12.5C14.7623 12.5 17 10.2623 17 7.5C17 4.73772 14.7623 2.5 12 2.5C9.23772 2.5 7 4.73772 7 7.5C7 10.2623 9.23772 12.5 12 12.5ZM12 4.5C13.6577 4.5 15 5.84228 15 7.5C15 9.15772 13.6577 10.5 12 10.5C10.3423 10.5 9 9.15772 9 7.5C9 5.84228 10.3423 4.5 12 4.5ZM21 21.5C21 22.0523 20.5523 22.5 20 22.5C19.4477 22.5 19 22.0523 19 21.5V19.5C19 18.0399 15.156 16.5 12 16.5C8.844 16.5 5 18.0399 5 19.5V21.5C5 22.0523 4.55228 22.5 4 22.5C3.44772 22.5 3 22.0523 3 21.5V19.5C3 16.4353 7.83098 14.5 12 14.5C16.169 14.5 21 16.4353 21 19.5V21.5Z" fill="white"/>
</mask>
<g mask="url(#mask0_63_1820)">
<rect y="0.5" width="24" height="24" fill="#A1AEB7"/>
</g>
</svg>
