<svg width="24" height="25" viewBox="0 0 24 25" fill="none" xmlns="http://www.w3.org/2000/svg">
<path fill-rule="evenodd" clip-rule="evenodd" d="M1 4.5C1 5.05228 1.44772 5.5 2 5.5H4.17058L7.2322 12.0789C7.2306 12.0824 7.22901 12.0858 7.22744 12.0893L6.17669 14.4222C5.72306 15.4293 6.17176 16.6135 7.17889 17.0671C7.43709 17.1834 7.71706 17.2435 8.00025 17.2435H18.5021C19.0544 17.2435 19.5021 16.7958 19.5021 16.2435C19.5021 15.6913 19.0544 15.2435 18.5021 15.2435H8.00025L8.66971 13.7572H17.7133L21.939 6.37668C22.2135 5.89739 22.0474 5.2864 21.5681 5.01198C21.0888 4.73757 20.4778 4.90365 20.2034 5.38294L16.5538 11.7572H9.28845L5.44581 3.5H2C1.44772 3.5 1 3.94772 1 4.5ZM11 20.5C11 21.6046 10.1046 22.5 9 22.5C7.89543 22.5 7 21.6046 7 20.5C7 19.3954 7.89543 18.5 9 18.5C10.1046 18.5 11 19.3954 11 20.5ZM17 22.5C18.1046 22.5 19 21.6046 19 20.5C19 19.3954 18.1046 18.5 17 18.5C15.8954 18.5 15 19.3954 15 20.5C15 21.6046 15.8954 22.5 17 22.5Z" fill="#C2D1D9"/>
<mask id="mask0_63_1849" style="mask-type:alpha" maskUnits="userSpaceOnUse" x="1" y="3" width="22" height="20">
<path fill-rule="evenodd" clip-rule="evenodd" d="M1 4.5C1 5.05228 1.44772 5.5 2 5.5H4.17058L7.2322 12.0789C7.2306 12.0824 7.22901 12.0858 7.22744 12.0893L6.17669 14.4222C5.72306 15.4293 6.17176 16.6135 7.17889 17.0671C7.43709 17.1834 7.71706 17.2435 8.00025 17.2435H18.5021C19.0544 17.2435 19.5021 16.7958 19.5021 16.2435C19.5021 15.6913 19.0544 15.2435 18.5021 15.2435H8.00025L8.66971 13.7572H17.7133L21.939 6.37668C22.2135 5.89739 22.0474 5.2864 21.5681 5.01198C21.0888 4.73757 20.4778 4.90365 20.2034 5.38294L16.5538 11.7572H9.28845L5.44581 3.5H2C1.44772 3.5 1 3.94772 1 4.5ZM11 20.5C11 21.6046 10.1046 22.5 9 22.5C7.89543 22.5 7 21.6046 7 20.5C7 19.3954 7.89543 18.5 9 18.5C10.1046 18.5 11 19.3954 11 20.5ZM17 22.5C18.1046 22.5 19 21.6046 19 20.5C19 19.3954 18.1046 18.5 17 18.5C15.8954 18.5 15 19.3954 15 20.5C15 21.6046 15.8954 22.5 17 22.5Z" fill="white"/>
</mask>
<g mask="url(#mask0_63_1849)">
<rect y="0.5" width="24" height="24" fill="#A1AEB7"/>
</g>
</svg>
